<?xml version="1.0" encoding="UTF-8"?>
<svg width="512" height="512" viewBox="0 0 512 512" xmlns="http://www.w3.org/2000/svg">
  <defs>
    <linearGradient id="g" x1="0" x2="1" y1="0" y2="1">
      <stop offset="0%" stop-color="#2ecc71"/>
      <stop offset="100%" stop-color="#27aeef"/>
    </linearGradient>
  </defs>
  <rect width="100%" height="100%" rx="64" fill="url(#g)"/>
  <g transform="translate(96,96) scale(0.625)" fill="#ffffff">
    <path d="M128 0c-15.464 0-28 12.536-28 28v16H48c-26.51 0-48 21.49-48 48v64c0 26.51 21.49 48 48 48h52v52c0 15.464 12.536 28 28 28s28-12.536 28-28V208h52c26.51 0 48-21.49 48-48v-64c0-26.51-21.49-48-48-48h-52V28c0-15.464-12.536-28-28-28z"/>
    <path d="M384 160c0-26.51-21.49-48-48-48h-52v-16c0-15.464-12.536-28-28-28s-28 12.536-28 28v16h-52c-26.51 0-48 21.49-48 48v64c0 26.51 21.49 48 48 48h52v128c0 15.464 12.536 28 28 28s28-12.536 28-28V272h52c26.51 0 48-21.49 48-48v-64z" opacity="0.85"/>
  </g>
</svg>
